<svg width="24" height="24" viewBox="0 0 24 24" fill="none" xmlns="http://www.w3.org/2000/svg">
<path d="M20.7784 13.8746L21.3876 14.312L20.7784 13.8746ZM20.7784 10.1254L20.1691 10.5628L20.7784 10.1254ZM21.6621 12L20.9121 12L21.6621 12ZM3.2197 13.8746L3.82895 13.4372L3.2197 13.8746ZM3.2197 10.1254L2.61044 9.68801L3.2197 10.1254ZM2.33594 12L1.58594 12L2.33594 12ZM2.61044 14.312C3.47864 15.5214 4.77066 17.1105 6.35076 18.4043C7.92227 19.691 9.85807 20.75 11.999 20.75V19.25C10.3533 19.25 8.74813 18.4285 7.30103 17.2437C5.86251 16.0659 4.65822 14.5923 3.82895 13.4372L2.61044 14.312ZM11.999 20.75C14.14 20.75 16.0758 19.691 17.6473 18.4043C19.2274 17.1105 20.5194 15.5214 21.3876 14.312L20.1691 13.4372C19.3398 14.5923 18.1356 16.0659 16.697 17.2437C15.2499 18.4285 13.6448 19.25 11.999 19.25V20.75ZM21.3876 9.68801C20.5194 8.47865 19.2274 6.88946 17.6473 5.59571C16.0758 4.30899 14.14 3.25 11.999 3.25V4.75C13.6448 4.75 15.2499 5.57146 16.697 6.75631C18.1355 7.93414 19.3398 9.40765 20.1691 10.5628L21.3876 9.68801ZM11.999 3.25C9.85807 3.25 7.92227 4.30899 6.35076 5.59572C4.77066 6.88946 3.47864 8.47865 2.61044 9.68801L3.82895 10.5628C4.65822 9.40765 5.86251 7.93414 7.30103 6.75631C8.74813 5.57146 10.3533 4.75 11.999 4.75V3.25ZM21.3876 14.312C21.942 13.5398 22.4121 12.9286 22.4121 12L20.9121 12C20.9121 12.3585 20.7931 12.5681 20.1691 13.4372L21.3876 14.312ZM20.1691 10.5628C20.7931 11.4319 20.9121 11.6415 20.9121 12L22.4121 12C22.4121 11.0714 21.942 10.4602 21.3876 9.68801L20.1691 10.5628ZM3.82895 13.4372C3.20499 12.5681 3.08594 12.3585 3.08594 12L1.58594 12C1.58594 12.9286 2.05606 13.5398 2.61044 14.312L3.82895 13.4372ZM2.61044 9.68801C2.05606 10.4602 1.58594 11.0714 1.58594 12L3.08594 12C3.08594 11.6415 3.20499 11.4319 3.82895 10.5628L2.61044 9.68801ZM8.24903 12C8.24903 14.0711 9.92796 15.75 11.999 15.75V14.25C10.7564 14.25 9.74903 13.2426 9.74903 12H8.24903ZM11.999 15.75C14.0701 15.75 15.749 14.0711 15.749 12H14.249C14.249 13.2426 13.2417 14.25 11.999 14.25V15.75ZM15.749 12C15.749 9.92893 14.0701 8.25 11.999 8.25V9.75C13.2417 9.75 14.249 10.7574 14.249 12H15.749ZM11.999 8.25C9.92796 8.25 8.24903 9.92893 8.24903 12H9.74903C9.74903 10.7574 10.7564 9.75 11.999 9.75V8.25Z" fill="white"/>
</svg>
